<?xml version="1.0" ?><svg id="Layer_1" style="enable-background:new 0 0 184.643 301.992;" version="1.1" viewBox="0 0 184.643 301.992" xml:space="preserve" xmlns="http://www.w3.org/2000/svg" xmlns:xlink="http://www.w3.org/1999/xlink"><g><path d="M106.666,301.951c5.019,0.409,9.575-2.244,11.848-6.393c-9.972-0.525-17.378-1.669-22.863-3.054   C96.86,297.564,101.199,301.505,106.666,301.951z"/><path d="M155.182,301.951c5.467-0.446,9.806-4.386,11.016-9.447c-5.485,1.386-12.892,2.53-22.864,3.055   C145.607,299.707,150.163,302.359,155.182,301.951z"/><polygon points="43.579,64.401 46.927,51.514 49.745,48.954 49.299,47.322 45.542,50.735 41.906,62.45  "/><path d="M29.794,29.848h0.276c0.51-6.12,2.338-7.948,8.457-8.457v-0.277c-6.12-0.509-7.948-2.337-8.457-8.457h-0.276   c-0.51,6.12-2.338,7.948-8.457,8.457v0.277C27.456,21.901,29.284,23.729,29.794,29.848z"/><path d="M19.247,50.795c-0.438,5.257-2.008,6.827-7.265,7.264v0.238c5.257,0.437,6.827,2.008,7.265,7.264h0.237   c0.438-5.257,2.008-6.827,7.264-7.264v-0.238c-5.257-0.437-6.827-2.008-7.264-7.264H19.247z"/><path d="M9.713,45.72h0.317c0.585-7.028,2.685-9.128,9.713-9.713V35.69c-7.028-0.584-9.128-2.684-9.713-9.713H9.713   C9.128,33.006,7.028,35.106,0,35.69v0.318C7.028,36.593,9.128,38.692,9.713,45.72z"/><path d="M177.501,67.833c-4.644,1.333-8.931,2.929-8.931,2.929c1.041-1.338,3.271-2.982,4.911-4.098   c-6.75-1.669-14.43-2.355-16.454-2.179c-1.096,0.095-2.652-0.618-4.593-1.698c-1.533-0.411-3.039-1.222-4.33-1.928   c-0.793-0.434-1.691-0.925-2.078-1.002c-1.506-0.299-10.294-0.292-13.593,0.336c-2.715,0.518-4.97,0.212-6.956-0.058   c-0.785-0.106-1.526-0.207-2.251-0.252c-1.501-0.077-8.962,2.421-15.364,4.901l-0.007-0.018c-2.411,0.923-5.177,1.546-8.536,1.62   c-13.479,0.296-23.417,5.417-23.667,9.333c-0.14,2.195,5.468,4.386,11.253,5.832c2.307-1.145,6.871-3.29,8.952-3.421   c0,0-2.558,1.81-5.546,4.183c3.305,0.658,6.295,1.011,7.842,0.906c1.782-0.121,4.421,0.663,7.998,1.683   c-0.015-0.355-0.027-0.712-0.027-1.071c0-8.027,12.455-11.62,24.8-11.62s24.8,3.593,24.8,11.62c0,0.132-0.008,0.261-0.01,0.392   c4.66-1.559,8.446-2.728,12.107-1.963c8.375,1.75,15.56-4.523,16.667-7.875C185.413,71.581,182.118,69.417,177.501,67.833z"/><path d="M123.414,56.891c0.833,0.052,1.663,0.165,2.467,0.274c1.847,0.25,3.757,0.509,5.992,0.083   c3.604-0.686,12.748-0.729,14.741-0.331c0.711,0.142,1.524,0.552,2.439,1.046c-1.806-8.942-5.618-20.299-7.501-21.241   c-2.699-1.349,2.735-12.45,1.964-16.113c-0.771-3.663,19.086-14.266,22.556-19.278c3.47-5.012-20.884,5.44-29.752,9.681   c-8.868,4.241-11.697,21.357-17.095,24.441c-1.836,1.049-3.481,4.994-4.854,9.74c2.206-0.792,7.305-2.436,13.449-3.181   c-5.71,1.726-11.041,4.466-14.34,6.516c-1.025,4.122-1.852,8.458-2.435,11.859C115.377,58.811,121.449,56.762,123.414,56.891z"/><path d="M153.229,86.751c0.124-0.956,0.195-1.928,0.195-2.918c0-12.427-45-12.427-45,0c0,0.99,0.071,1.962,0.195,2.918   l-0.088,0.003c0.044,1.379,0.151,4.373,0.366,8.452c0.198,3.767,0.488,8.463,0.903,13.69c-0.066,0.108-0.129,0.208-0.198,0.323   l-0.145-0.454c-1.96,0.624-17.66,6.412-24.911,32.985c-7.014,2.421-17.465,6.306-28.476,11.388c0,0,0.109,0.579,0.289,1.566   l-2.053,0.588l0.11-21.467l-3.913-14.91l4.364-11.308l-4.565-8.446L52.82,84.05l3.252-1.602l0.283-3.173l3.224-2.209l-0.198-2.326   l-2.701,1.14l2.839-4.47l-0.134-1.029l0.025-0.044l-0.232-7.258l2.542-6.165l-3.649-6.75l-2.995-7.271l-7.599-3.325l-6.511,6.594   l-3.483,10.061l-3.723,7.107l2.494,9.862l-1.432,1.459l5.497,7.463l-1.976,19.148l4.191,10.176l-2.219,11.24l4.702,12.737   L44.454,158.2l0.033,0.476c-2.552,1.938-3.794,5.306-2.858,8.572c0.604,2.107,2.007,3.76,3.778,4.756l0.645,9.342l1.621,5.491   l-0.57,3.023l5.146,28.483l1.935,80.696l4.638-2.726l-0.593-58.725l1.263-14.467l-1.437-2.735l-0.19-18.799l-3.744-23.077   l0.053-6.537l4.759-1.364c0.971,6.973,1.687,14.048,1.135,17.028c-1.229,6.639,13.992-12.349,35.188-18.922   c-0.106,2.299-0.189,4.65-0.228,7.093c0,0.025-0.001,0.049-0.002,0.074c-0.547,35.175-6.308,73.621-9.692,93.406   c4.322,1.698,16.226,5.334,42.214,7.211c0,0-19.802,3.77-43.152-1.849c-0.917,5.126-1.506,8.069-1.506,8.069   s4.594,10.151,48.031,10.151c43.437,0,48.032-10.151,48.032-10.151s-11.357-56.737-12.136-106.837   c-0.004-0.248-0.014-0.483-0.018-0.73l3.006-0.027c0.004,0.236,0.008,0.473,0.012,0.711c0.182,11.731,0.958,23.873,2.034,35.573   c0.011,0.001,0.022,0.003,0.033,0.004c0.159,0.009,0.316,0.014,0.475,0.014c4.204,0,7.729-3.281,7.979-7.533   c2.103-35.938-1.375-62.498-10.337-78.94c-6.817-12.508-14.9-15.566-17.937-16.295c0.406-5.132,0.69-9.741,0.885-13.451   c0.214-4.081,0.322-7.076,0.366-8.454L153.229,86.751z M52.763,45.155l2.563,6.224l3.077,5.709l-2.244,5.443l0.225,7.047   l-1.445,2.503l-2.684,0.563l-2.254,3.401l-0.122-0.998l-6.679-0.073l-0.673,0.585l-3.223-2.534l-2.356-9.318l3.243-6.19l3.386-9.73   l4.585-4.643L52.763,45.155z M124.221,95.376c1.788-1.874,4.133-2.824,6.97-2.824s5.182,0.95,6.969,2.824   c2.347,2.46,3.113,5.972,3.356,8.311c3.865-2.066,7.056-5.225,9.158-9.067c-1.486,27.894-6.895,79.619-19.75,79.619   c-12.855,0-18.265-51.728-19.75-79.622c2.194,4.01,5.575,7.275,9.669,9.331C121.053,101.615,121.782,97.932,124.221,95.376z"/><path d="M137.617,105.321c-0.039-1.459-0.343-5.089-2.36-7.193c-1.017-1.061-2.347-1.576-4.066-1.576s-3.051,0.516-4.067,1.576   c-2.087,2.178-2.341,5.995-2.364,7.343c1.96,0.557,4.026,0.862,6.164,0.862C133.254,106.333,135.502,105.979,137.617,105.321z"/></g></svg>