<?xml version="1.0" ?><svg id="Layer_1" style="enable-background:new 0 0 149.277 233.762;" version="1.1" viewBox="0 0 149.277 233.762" xml:space="preserve" xmlns="http://www.w3.org/2000/svg" xmlns:xlink="http://www.w3.org/1999/xlink"><g><path d="M71.048,133.698c12.608,0,24.664-1.634,32.589-4.386l5.451-24.247c-3.789-0.811-9.231-2.371-13.966-4.153   c0.403-0.841,0.816-1.765,1.224-2.749c6.974,2.608,15.967,5.053,17.515,4.381c2.474-1.072,14.356-21.005,7.509-29.292   c-5.399-6.535-17.257-6.978-22.035-6.874c-0.873,2.77-2.138,5.368-3.732,7.727c4.599,13.783-5.258,29.463-6.057,30.697   c-1.02,1.152-12.896,14.503-18.698,18.097c-5.801-3.594-17.683-16.951-18.698-18.098c-0.8-1.232-10.67-16.894-6.057-30.696   c-1.594-2.358-2.859-4.956-3.732-7.727c-4.778-0.104-16.635,0.34-22.034,6.874c-6.847,8.288,5.035,28.22,7.509,29.292   c1.549,0.671,10.542-1.773,17.516-4.381c0.408,0.984,0.821,1.908,1.224,2.749c-4.507,1.696-9.652,3.19-13.405,4.03l5.495,24.443   C46.592,132.094,58.55,133.698,71.048,133.698z M110.432,97.366c-1.473,0-2.667-1.194-2.667-2.667c0-1.473,1.194-2.667,2.667-2.667   s2.667,1.194,2.667,2.667C113.099,96.172,111.905,97.366,110.432,97.366z M115.765,74.199c1.473,0,2.667,1.194,2.667,2.667   c0,1.473-1.194,2.667-2.667,2.667s-2.667-1.194-2.667-2.667C113.099,75.393,114.292,74.199,115.765,74.199z M25.932,79.532   c-1.473,0-2.667-1.194-2.667-2.667c0-1.473,1.194-2.667,2.667-2.667s2.667,1.194,2.667,2.667   C28.599,78.338,27.405,79.532,25.932,79.532z M28.599,94.699c0-1.473,1.194-2.667,2.667-2.667c1.473,0,2.667,1.194,2.667,2.667   c0,1.473-1.194,2.667-2.667,2.667C29.792,97.366,28.599,96.172,28.599,94.699z"/><path d="M101.623,138.271c-8.396,2.199-19.163,3.427-30.575,3.427c-11.322,0-22.008-1.21-30.374-3.376l0.193,0.859l-0.606,3.394   l-2.01,11.267l59.617,17.91c-0.324-6.545-4.501-12.507-10.859-15.231l-3.097-1.326l2.362-2.401   c4.512-4.585,9.918-7.983,15.787-10.004l-0.347-1.946l-0.297-1.664L101.623,138.271z"/><path d="M36.524,219.632c-0.469,7.321,5.086,13.633,12.403,14.102c7.319,0.469,13.634-5.081,14.104-12.403l2.671-38.447   c-8.358-0.815-19.676-3.04-26.316-4.438L36.524,219.632z"/><path d="M76.264,197.892l1.628,23.439c0.469,7.321,6.785,12.872,14.104,12.403c6.26-0.401,11.217-5.084,12.228-11.012   c-1.058-0.218-2.111-0.465-3.148-0.777C89.528,218.476,80.442,209.512,76.264,197.892z"/><path d="M84.671,188.895c4.068-0.96,7.624-3.301,10.01-6.538l-4.678-1.405c-5.112,0.899-10.436,1.701-14.772,2.054l0.402,5.789   l1.596,0.289C79.723,189.535,82.227,189.471,84.671,188.895z"/><path d="M36.294,164.818l-1.698,9.516c0,0,25.718,5.866,36.547,5.866c3.168,0,7.612-0.504,12.312-1.214L36.294,164.818z"/><path d="M46.703,133.266c-1.059,0-1.917,0.858-1.917,1.917c0,1.059,0.858,1.917,1.917,1.917s1.917-0.858,1.917-1.917   C48.619,134.124,47.761,133.266,46.703,133.266z"/><path d="M54.751,138.432c1.059,0,1.917-0.858,1.917-1.917s-0.858-1.917-1.917-1.917c-1.059,0-1.917,0.858-1.917,1.917   S53.693,138.432,54.751,138.432z"/><path d="M62.8,139.099c1.059,0,1.917-0.858,1.917-1.917c0-1.059-0.858-1.917-1.917-1.917s-1.917,0.858-1.917,1.917   C60.883,138.241,61.741,139.099,62.8,139.099z"/><path d="M94.994,133.266c-1.059,0-1.917,0.858-1.917,1.917c0,1.059,0.858,1.917,1.917,1.917s1.917-0.858,1.917-1.917   C96.911,134.124,96.053,133.266,94.994,133.266z"/><path d="M86.946,138.432c1.059,0,1.917-0.858,1.917-1.917s-0.858-1.917-1.917-1.917c-1.059,0-1.917,0.858-1.917,1.917   S85.887,138.432,86.946,138.432z"/><path d="M78.897,139.099c1.059,0,1.917-0.858,1.917-1.917c0-1.059-0.858-1.917-1.917-1.917s-1.917,0.858-1.917,1.917   C76.98,138.241,77.839,139.099,78.897,139.099z"/><path d="M70.849,139.766c1.059,0,1.917-0.858,1.917-1.917c0-1.059-0.858-1.917-1.917-1.917c-1.059,0-1.917,0.858-1.917,1.917   C68.932,138.908,69.79,139.766,70.849,139.766z"/><path d="M115.053,105.298c-0.565,0.245-1.2,0.359-1.996,0.359c-0.001,0-0.001,0-0.001,0c-0.273,0-0.617-0.026-1.017-0.073   c3.034,8.638,3.028,20.536-0.024,35.196c4.387-0.279,8.796,0.198,13.004,1.462c2.297,0.69,4.488,1.613,6.572,2.715   c5.237-24.79,3.132-43.606-6.345-57.195C123.071,95.214,118.042,104.002,115.053,105.298z"/><path d="M2.859,145.611c-0.734-0.221-1.503,0.179-1.717,0.893l-1.087,3.617c-0.214,0.714,0.207,1.471,0.941,1.691l12.27,3.686   c0.238,0.868,0.482,1.741,0.736,2.622c0.237,0.824,0.477,1.649,0.728,2.485c1.301,4.33,5.272,7.124,9.572,7.124   c0.953,0,1.923-0.137,2.883-0.426c2.164-0.651,3.935-1.975,5.175-3.668c0.467-0.637,0.866-1.322,1.171-2.049l62.742,18.848   c0.328,0.595,0.843,1.085,1.493,1.38c-4.032,7.156-12.445,11.071-20.948,9.532c2.602,13.26,11.751,24.44,24.919,28.396   c13.168,3.956,26.964-0.331,36.443-9.962c-7.964-3.411-12.832-11.346-12.222-19.562c0.727,0.038,1.432-0.171,2.012-0.572   l1.691-5.631c-0.262-0.655-0.736-1.217-1.363-1.586c4.019-7.192,12.454-11.131,20.979-9.588   c-2.602-13.26-11.751-24.44-24.919-28.396c-13.168-3.956-26.964,0.331-36.443,9.962c7.943,3.402,12.806,11.305,12.227,19.498   c-0.704-0.112-1.405,0.013-2.006,0.329l-64.231-19.296c-0.009-0.03-0.013-0.06-0.022-0.09c-0.258-0.859-0.485-1.692-0.727-2.537   c-5.733-20.063-6.708-36.009-2.882-46.81c-0.673,0.101-1.229,0.156-1.633,0.156c0,0,0,0-0.001,0c-0.796,0-1.431-0.114-1.996-0.359   c-2.911-1.262-7.751-9.629-10.011-16.949c-9.213,13.663-11.14,32.502-5.804,57.255c0.183,0.851,0.378,1.711,0.579,2.575   L2.859,145.611z M121.557,188.594l-20.098-6.089l0.58-1.914l20.098,6.089L121.557,188.594z M123.297,182.852l-20.098-6.089   l0.58-1.914l20.098,6.089L123.297,182.852z"/><path d="M70.848,43.295c11.332,0,24.22,2.508,28.438,9.201c13.603-6.109,31.908-22.413,19.44-49.934c0,0-0.919-2.497-2.301-2.561   s-1.201,2.17-1.201,2.17s2.738,27.695-19.817,33.76c-3.409-5.807-8.84-10.279-15.329-12.453c0.122-0.198,0.186-0.403,0.186-0.613   c0-1.143-1.895-2.138-4.692-2.657c-1.158-6.073-2.745-12.229-4.429-12.229s-3.271,6.155-4.429,12.229   c-2.797,0.519-4.692,1.514-4.692,2.657c0,0.21,0.064,0.415,0.186,0.613c-6.489,2.174-11.92,6.645-15.329,12.453   c-22.554-6.065-19.817-33.76-19.817-33.76s0.182-2.234-1.201-2.17s-2.301,2.561-2.301,2.561   c-12.328,27.211,5.428,43.453,18.978,49.721C46.892,45.747,59.635,43.295,70.848,43.295z M68.644,33.949c0-1.381,1.119-2.5,2.5-2.5   c1.381,0,2.5,1.119,2.5,2.5c0,1.381-1.119,2.5-2.5,2.5C69.763,36.449,68.644,35.33,68.644,33.949z"/><path d="M43.987,57.421c0,7.961,3.466,15.11,8.969,20.029c3.523-1.491,5.29-4.301,6.983-6.276c2.461-2.876,7.777-2.375,7.777-2.375   c2.965,1,1.665,5.66,1.665,5.66s-4.514,0-9.442,4.107c-0.937,0.78-2.167,1.254-3.511,1.512c4.167,2.658,9.112,4.204,14.421,4.204   c5.309,0,10.254-1.546,14.421-4.204c-1.344-0.258-2.575-0.732-3.512-1.512c-4.93-4.107-9.443-4.107-9.443-4.107   s-1.3-4.66,1.665-5.66c0,0,5.316-0.501,7.777,2.375c1.693,1.975,3.46,4.785,6.983,6.276c5.502-4.919,8.968-12.068,8.968-20.029   C97.709,42.586,43.987,42.586,43.987,57.421z"/></g></svg>