<?xml version="1.0" ?><svg id="Layer_1" style="enable-background:new 0 0 181.104 245.168;" version="1.1" viewBox="0 0 181.104 245.168" xml:space="preserve" xmlns="http://www.w3.org/2000/svg" xmlns:xlink="http://www.w3.org/1999/xlink"><g><path d="M36.425,61.361c3.044-2.698,6.05-4.288,8.705-5.219l-3.232-5.326l-2.253,1.367L28.922,33.879l0.462-1.468l-5.304-13.362   l-4.309-0.792l-1.023-1.746l-1.431,0.838l1.023,1.746l-1.416,4.146l9.061,11.161l1.506,0.315l10.736,18.326l-2.342,1.421   l-1.393-1.88l0.301-1.509l-6.709-12.715l-4.369-0.325l-1.204-1.626l-1.333,0.987l1.204,1.626l-0.962,4.274L31.628,53.42   l1.531,0.152l1.301,1.757l-3.036,1.842l3.446,5.679C35.379,62.333,35.894,61.831,36.425,61.361z"/><path d="M81.047,200.497c3.664-2.2,9.394-3.206,14.176-3.206c3.114,0,5.71,0.398,7.726,1.141l-2.547-27.086   c-5.859,1.31-14.611,3.129-21.719,4.02L81.047,200.497z"/><path d="M79.586,206.321l2.544,27.063c0.633,6.735,6.296,11.784,12.928,11.784c0.407,0,0.818-0.019,1.232-0.058   c7.148-0.672,12.398-7.012,11.726-14.16l-1.928-20.507c-1.314-0.572-5.465-1.916-12.512-0.076l-0.506-1.935   c6.39-1.669,10.632-0.922,12.809-0.206l-0.408-4.339C104.799,196.738,78.914,199.173,79.586,206.321z"/><path d="M42.034,180.674l-1.669,17.757c2.017-0.743,4.612-1.141,7.726-1.141c4.782,0,10.512,1.006,14.176,3.206l2.363-25.132   c-0.005-0.001-0.01-0.001-0.016-0.002C56.861,177.909,49.325,179.687,42.034,180.674z"/><path d="M37.843,203.887l-0.408,4.34c2.177-0.716,6.419-1.463,12.809,0.205l-0.506,1.935c-7.115-1.858-11.215-0.509-12.511,0.068   l-1.929,20.514c-0.672,7.148,4.578,13.488,11.726,14.16c0.414,0.039,0.825,0.058,1.232,0.058c6.631,0,12.294-5.049,12.928-11.784   l2.544-27.063C64.401,199.173,38.516,196.738,37.843,203.887z"/><path d="M106.165,166.922l-1.855-10.23c-11.25,6.769-22.18,12.183-32.728,16.207c0.024,0,0.051,0.001,0.075,0.001   C81.882,172.9,106.165,166.922,106.165,166.922z"/><path d="M50.216,20.705c0.353,0.154,0.689,0.354,1.009,0.594c0.621-4.939,1.665-9.192,3.528-11.781   c7.413-10.303,15.772-5.426,16.119-5.216l0.785,0.476l0.783-0.473c0.353-0.213,8.712-5.088,16.124,5.213   c1.863,2.589,2.907,6.843,3.528,11.783c0.323-0.243,0.663-0.446,1.022-0.603c0.376-0.202,0.99-1.041,1.625-2.14   c-0.718-4.4-1.857-8.176-3.739-10.792C83.331-2.887,74.334,0.116,71.657,1.345c-2.676-1.23-11.673-4.234-19.341,6.422   c-1.882,2.616-3.021,6.392-3.739,10.791C49.215,19.659,49.832,20.5,50.216,20.705z"/><path d="M70.921,9.271l0.73,0.784l0.737-0.778c0.192-0.203,4.812-4.89,13.502,2.576l1.304-1.517   c-8.172-7.021-13.642-4.4-15.537-3.036c-1.895-1.365-7.366-3.986-15.537,3.036l1.304,1.517C66.115,4.387,70.735,9.072,70.921,9.271   z"/><path d="M49.891,35.39c2.527,9.661,11.314,16.791,21.767,16.791c10.455,0,19.24-7.129,21.767-16.791   c2.954-0.052,3.401-3.538,5.483-7.368c2.549-4.689-0.493-11.788-0.493-11.788s-2.224,5.63-4.381,6.573   c-0.989,0.432-1.681,1.486-2.144,2.502c-7.693-6.595-32.773-6.595-40.464,0c-0.463-1.016-1.155-2.07-2.144-2.502   c-2.157-0.943-4.381-6.573-4.381-6.573s-3.041,7.099-0.493,11.788C46.489,31.852,46.936,35.339,49.891,35.39z"/><path d="M39.087,145.08c-0.371-6.346-0.561-12.409-0.564-18.019c-0.002-4.969-18.002-4.961-18,0.01   c0.001,1.384,0.014,2.798,0.036,4.23c1.275-0.347,3.195-0.781,5.057-0.858l0.083,1.998c-1.912,0.08-3.966,0.599-5.095,0.927   c0.09,4.106,0.257,8.367,0.514,12.765c0.28,4.783,4.247,8.475,8.976,8.475c0.177,0,0.355-0.005,0.534-0.016   C35.59,154.301,39.377,150.042,39.087,145.08z"/><path d="M0.335,178.595c-1.007,1.518,0.457,6.117,1.734,2.912c0.985-2.473,4.666-3.516,7.457-4.035   c1.741-0.05,3.429-0.003,4.703,0.239c4.237,0.806,36.091,9.455,90.921-24.213c-2.149-2.198-3.411-5.248-3.218-8.551   c0.021-0.357,0.035-0.704,0.055-1.059l-2.847-15.694c-0.515-0.325-1.03-0.66-1.545-1.001l-59.983,37.181l-0.462,2.549   c0,0,10.568,2.601,20.697,4.372c-2.292,0.693-4.495,1.296-6.606,1.815c-3.052-0.607-5.933-1.228-8.328-1.763l-0.333,3.542   c-9.469,1.542-16.574,1.341-21.307,0.802c-2.145-0.244-3.814-0.555-4.988-0.802l89.389-55.408c0.028,0.87,0.049,1.761,0.067,2.664   c0.003,0.138,0.006,0.274,0.008,0.413c2.177-1.069,5.153-1.517,8.033-1.517c2.625,0,5.107,0.382,6.989,1.075   c0.358,0.132,0.678,0.274,0.98,0.421c-0.059-3.494-0.188-6.855-0.39-10.075c-0.055-0.875-0.115-1.74-0.181-2.594l45.039-27.918   c-1.851,6.971-8.693,27.067-38.943,51.309c-0.755,0.605-1.522,1.213-2.307,1.823c-0.045,1.642-0.102,3.307-0.172,4.997   c38.956-29.753,43.997-55.607,45.01-59.291c0.224-0.815,0.602-1.752,1.061-2.732c0.436-0.93,0.945-1.898,1.474-2.84   c1.873-2.129,4.64-4.736,7.258-4.32c3.407,0.541,0.204-3.068-1.616-2.979c-3.802,2.353-5.985,4.43-7.155,6.038   c-1.351,1.394-2.642,2.918-3.421,4.324l-46.466,28.802c-1.964-21.165-7.334-35.751-16.043-43.472   c-0.986-0.874-1.963-1.605-2.922-2.236c-0.456-0.752-1.195-1.265-2.163-1.443c-3.108-0.574-3.444-12.239-3.714-21.612   c-0.013-0.442-0.026-0.885-0.039-1.328c-0.256,0.153-0.53,0.285-0.824,0.392c-0.522,1.605-1.216,3.119-2.029,4.55   c0.222,6.826,0.568,12.656,1.878,16.433c-1.479-0.341-2.73-0.446-3.663-0.459c-0.149-0.009-0.297-0.023-0.449-0.023h-4.191   l2.255-10.513c-4.155,4.077-9.706,6.654-15.757,7.049v3.464h-3.25v-3.464c-6.05-0.395-11.602-2.972-15.757-7.05l2.256,10.514H52.34   c-1.671,0-3.214,0.536-4.478,1.437c1.619-3.707,2.003-9.962,2.244-17.39c-0.813-1.43-1.506-2.944-2.029-4.549   c-0.294-0.107-0.568-0.239-0.824-0.392c-0.013,0.443-0.026,0.886-0.039,1.329c-0.176,6.132-0.381,13.243-1.372,17.59   c-0.416,1.826-0.972,3.159-1.722,3.731c0.371,0.554,1.07,1.589,2.06,3.018l-2.346,1.734l1.188,1.608l2.303-1.702   c1.649,2.348,3.823,5.382,6.422,8.864l-2.516,1.755l1.145,1.641l2.573-1.795c2.07,2.744,4.373,5.72,6.862,8.822l-2.132,1.705   l1.249,1.562l2.138-1.71c2.929,3.609,6.091,7.358,9.416,11.083l-2.416,2.09l1.309,1.513l2.446-2.116   c3.316,3.659,6.779,7.272,10.32,10.682l-2.261,2.064l1.349,1.477l2.364-2.159c2.834,2.668,5.711,5.193,8.597,7.496l-1.843,1.843   l1.414,1.414l2.014-2.014c0.977,0.75,1.954,1.471,2.93,2.164V81.801c2.933,5.885,6.013,16.361,6.859,34.811l-6.716,4.163   l-5.51,3.416c-2.056-1.531-4.107-3.174-6.142-4.905l1.484-1.682l-1.5-1.323l-1.5,1.699c-3.551-3.105-7.045-6.46-10.428-9.928   l2.333-2.268l-1.395-1.434l-2.329,2.264c-3.755-3.919-7.357-7.956-10.73-11.926l1.921-1.707l-1.329-1.495l-1.883,1.673   c-2.854-3.402-5.53-6.734-7.975-9.875l2.347-1.649l-1.149-1.637l-2.422,1.702c-2.756-3.58-5.188-6.873-7.215-9.686l2.39-1.421   l-1.022-1.719l-2.537,1.508c-2.59-3.636-4.363-6.269-5.107-7.387c-0.244,0.201-0.488,0.392-0.733,0.609   c-10.689,9.477-16.349,29.296-16.851,58.93c0.302-0.147,0.622-0.289,0.98-0.421c1.882-0.693,4.365-1.075,6.989-1.075   c2.88,0,5.857,0.447,8.033,1.517c0.39-21.256,3.607-33.75,7.046-40.74v8.54v30.798v4.628l-3.284,18.106   c0.02,0.355,0.034,0.702,0.055,1.059c0.126,2.16-0.377,4.209-1.333,5.988l-1.285,7.083l-3.435,2.129l-23.215,14.39   c-0.529,0.068-1.084,0.171-1.65,0.297c-1.605,0.358-3.305,0.913-4.814,1.476C4.15,176.795,2.384,177.528,0.335,178.595z"/><path d="M104.228,145.08c-0.291,4.962,3.497,9.22,8.458,9.511c0.179,0.01,0.357,0.016,0.534,0.016c4.729,0,8.696-3.692,8.976-8.475   c0.258-4.398,0.424-8.658,0.514-12.765c-1.129-0.328-3.183-0.847-5.095-0.927l0.083-1.998c1.862,0.077,3.782,0.512,5.057,0.858   c0.022-1.431,0.036-2.846,0.036-4.23c0.002-4.971-17.998-4.979-18-0.01C104.789,132.672,104.599,138.734,104.228,145.08z"/></g></svg>