<?xml version="1.0" ?><svg id="Layer_1" style="enable-background:new 0 0 102.501 164.458;" version="1.1" viewBox="0 0 102.501 164.458" xml:space="preserve" xmlns="http://www.w3.org/2000/svg" xmlns:xlink="http://www.w3.org/1999/xlink"><g><path d="M86.625,108.88c-0.24,4.401-3.878,7.848-8.282,7.848c-0.15,0-0.301-0.004-0.453-0.012   c-0.383-0.021-0.755-0.077-1.122-0.147v10.566c1.242,1.05,2,2.391,2,4.073v3.163c19.674-1.225,23.733-2.274,23.733-2.274   s-3.982-59.852-18.289-75.139c-0.102-0.109-0.201-0.202-0.303-0.309c-0.442,0.241-0.907,0.477-1.402,0.703   C86.619,68.031,87.936,84.862,86.625,108.88z"/><path d="M50.333,127.135c0.352,0.297,0.65,0.627,0.917,0.972c0.268-0.345,0.565-0.675,0.918-0.972v-14.93h-1.835V127.135z"/><path d="M23.733,134.37v-3.163c0-1.682,0.758-3.024,2-4.073v-10.565c-0.365,0.07-0.736,0.126-1.118,0.147   c-0.156,0.008-0.308,0.012-0.458,0.012c-4.404,0-8.042-3.446-8.282-7.847c-1.311-24.019,0.005-40.85,4.118-51.53   c-0.496-0.226-0.96-0.461-1.402-0.703c-0.102,0.107-0.2,0.199-0.303,0.309C3.982,72.244,0,132.096,0,132.096   S4.059,133.146,23.733,134.37z"/><path d="M46.172,56.571c1.36-1.188,3.134-1.913,5.078-1.913c1.944,0,3.717,0.726,5.078,1.913l7.758-11.059h-3.013H41.418h-3.004   L46.172,56.571z"/><path d="M58.971,62.725c-0.175,4.113-3.565,7.407-7.721,7.407c-4.155,0-7.546-3.294-7.721-7.407   c-4.599-0.543-14.455-1.932-21.386-4.497c-3.951,10.356-5.252,27.06-3.971,50.526c0.175,3.197,2.822,5.673,5.986,5.673   c0.11,0,0.221-0.003,0.333-0.009c0.429-0.023,0.844-0.093,1.243-0.201v-31.51h2.3v8.292h46.435v-8.292h2.3v31.51   c0.399,0.108,0.813,0.177,1.242,0.201c0.112,0.006,0.222,0.009,0.333,0.009c3.164,0,5.811-2.476,5.986-5.673   c1.281-23.467-0.021-40.17-3.971-50.526C73.426,60.793,63.57,62.182,58.971,62.725z"/><path d="M74.468,102.177v-2.219v-4.625H28.033v4.625v2.219v23.559c2.796-1.268,6.545-1.798,10-1.798c3.455,0,7.204,0.53,10,1.799   v-15.831h6.435v15.83c2.796-1.269,6.545-1.798,10-1.798c3.455,0,7.203,0.53,10,1.798V102.177z"/><circle cx="51.25" cy="20.907" r="20.907"/><path d="M43.774,60.436c0.191-0.729,0.485-1.414,0.867-2.043L34.514,43.958c0,0-13.75,3.375-15.75,10.125   C24.453,57.809,38.139,59.766,43.774,60.436z"/><path d="M58.726,60.436c5.635-0.67,19.321-2.627,25.009-6.353c-2-6.75-15.75-10.125-15.75-10.125L57.859,58.393   C58.242,59.022,58.535,59.707,58.726,60.436z"/><circle cx="51.25" cy="62.395" r="5.438"/><path d="M50.033,131.208c0-6.627-24-6.627-24,0v21.25c0,6.627,5.373,12,12,12s12-5.373,12-12V131.208z"/><path d="M76.468,131.208c0-6.627-24-6.627-24,0v21.25c0,6.627,5.373,12,12,12s12-5.373,12-12V131.208z"/></g></svg>