<?xml version="1.0" ?><svg id="Layer_1" style="enable-background:new 0 0 189.136 264.011;" version="1.1" viewBox="0 0 189.136 264.011" xml:space="preserve" xmlns="http://www.w3.org/2000/svg" xmlns:xlink="http://www.w3.org/1999/xlink"><g><path d="M90.309,115.595l-9.988-1.033l-19.953,2.064l-3.846-4.421l2.264-1.969l2.822,3.245l17.213-1.781V91.04h3v20.661l8.96,0.927   c1.199-6.801,3.057-12.697,5.243-17.138l1.041-2.115l2.302,0.511c3.093,0.688,6.723,1.076,10.807,1.158   c-2.774-3.183-5.307-8.396-7.839-17.017c-1.018-0.199-1.947-0.307-2.696-0.307H61.003c-0.749,0-1.677,0.109-2.696,0.307   C52.361,98.272,46.413,99.7,37.336,100.291c-1.375,0.089-2.818,0.185-4.345,0.399c-3.859,6.495-7.725,14.818-11.331,25.493   c0.511-0.076,1.072-0.122,1.7-0.122c4.28,0,10.521,2.065,13.558,4.962c3.951-11.636,8.04-19.654,11.747-25.175l4.266,44.415   l-2.38,29.186L38.756,167.89l4.782-4.88l-4.999-4.9l-7.065,7.209c-1.183,3.566-4.059,6.286-7.603,7.306l0.226,0.222l-7.256,7.404   l4.999,4.9l4.783-4.88l16.817,16.481l1.386,1.358c0.663,7.994,7.105,14.329,15.142,14.839l2.334,2.287   c-0.429,0.03-0.857,0.066-1.294,0.066c-5.036,0-9.603-2.024-12.949-5.292l-3.314,40.634c-0.555,6.807,4.514,12.772,11.318,13.327   c6.805,0.554,12.773-4.51,13.328-11.317l2.301-28.214l18.756,18.382l0.802,9.832c0.555,6.808,6.523,11.872,13.328,11.317   c6.805-0.555,11.873-6.52,11.318-13.327l-3.314-40.635c-3.346,3.269-7.914,5.293-12.95,5.293c-4.466,0-8.568-1.588-11.773-4.227   l0.438,5.367L77.28,205.644l-1.723-1.689c1.079-2.173,1.701-4.614,1.701-7.204c0,0,0,0,0,0c0-3.238-0.958-6.248-2.591-8.782   l2.153-26.4h7.002l2.153,26.398c-1.634,2.534-2.592,5.545-2.592,8.784c0,0,0,0,0,0c0,8.974,7.276,16.25,16.25,16.25   c8.975,0,16.25-7.275,16.25-16.25c0,0,0,0,0,0c0-1.417-0.2-2.785-0.541-4.095C91.381,170.869,87.015,138.754,90.309,115.595z    M28.023,178.842l4.316-4.404l76.219,74.696l-11.401-2.539L28.023,178.842z M109.258,248.419l-76.219-74.696l4.317-4.405   l69.134,67.752L109.258,248.419z"/><path d="M56.563,75.773c0,0-25.017-7.885-33.345,25.615C39.974,92.761,47.652,107.607,56.563,75.773z"/><path d="M113.423,95.047c7.485-0.132,15.139-1.165,21.167-2.226c-10.081-23.484-30.511-17.048-30.511-17.048   C107.197,86.913,110.164,92.333,113.423,95.047z"/><path d="M103.351,30.151c0.784,6.619,1.983,13.612,3.138,19.617c6.727,3.137,16.071,1.517,16.071,1.517s-8.874-3.783-11.362-16.582   c-3.459-17.795-3.992-35.006-20.267-34.699c-9.759,0.184-13.442,6.549-14.83,11.618c1.536-0.278,2.969-0.409,4.198-0.42   C87.532,11.266,101.593,15.309,103.351,30.151z"/><path d="M77.821,50.701l-13.098-3.289l1.219-4.85l14.284,3.587l14.481-3.589l1.203,4.854l-13.09,3.244v20.553   c9.131-0.789,24.788-5.168,24.788-5.168s-4.558-18.87-6.542-35.622c-1.984-16.752-20.746-16.919-20.746-16.919   s-18.762,0.167-20.746,16.919s-6.542,35.622-6.542,35.622s15.656,4.379,24.788,5.168V50.701z"/><path d="M12.297,146.908l0.12-0.123c0.182-0.772,0.366-1.539,0.552-2.299l-2.703-2.649L0,152.312l3.571,3.5l1.54-1.571l4.706,4.612   c0.801-4.085,1.653-8.047,2.553-11.873L12.297,146.908z"/><path d="M29.594,163.479c1.988-10.26,4.305-19.648,6.886-27.902c1.483-4.744-15.695-10.117-17.18-5.372   c-2.78,8.892-5.263,18.935-7.378,29.85c-0.945,4.88,2.244,9.603,7.124,10.548c0.578,0.112,1.154,0.166,1.722,0.166   C24.992,170.768,28.76,167.78,29.594,163.479z"/><path d="M146.943,93.277c0,0-29.368,7.731-48.228,3.537c-9.557,19.416-13.013,71.62,25.411,99.081   c46.443-8.592,65.431-57.341,65.003-78.978C170.269,112.724,146.943,93.277,146.943,93.277z M125.845,188.162   c-29.993-23.58-28.882-64.55-22.621-83.434c15.603,1.681,34.288-1.967,41.999-3.718c6.244,4.853,21.621,16.075,36.466,21.164   C179.363,141.934,163.01,179.513,125.845,188.162z"/><path d="M104.913,107.297c-5.512,18.696-5.749,56.052,21.507,78.279c34.108-8.583,49.723-42.52,52.651-61.791   c-13.92-5.216-27.875-15.173-34.422-20.191C136.591,105.365,119.734,108.472,104.913,107.297z"/></g></svg>