<?xml version="1.0" ?><svg id="icon" viewBox="0 0 512 512" xmlns="http://www.w3.org/2000/svg"><title/><path d="M33.93,463.51l14.56,14.56,1,1a8.53,8.53,0,0,0,12.06,0l92.61-92.62a7.6,7.6,0,0,0,0-10.77L152.52,374,276.65,249.91a5.49,5.49,0,0,0,.12-7.65c-1.14-1.2-2.29-2.39-3.47-3.56s-2.36-2.33-3.56-3.47a5.49,5.49,0,0,0-7.65.12L138,359.48l-1.63-1.63a7.6,7.6,0,0,0-10.77,0L33,450.46a8.53,8.53,0,0,0,0,12.06Z"/><path d="M372.67,135.83l-25.91,9.41a5.8,5.8,0,0,0-2.32,9.34q3,3.36,6.33,6.65t6.65,6.33a5.8,5.8,0,0,0,9.34-2.32l9.41-25.91A2.73,2.73,0,0,0,372.67,135.83Z"/><path d="M220.33,100c39.34-34.36,79.52-36.12,100.19-34.06a6,6,0,0,0,6.62-5.61l1.33-22.77a6,6,0,0,0-5.36-6.31c-18.95-2-81.58-3.86-132.64,47.2S141.32,192.09,143.27,211a6,6,0,0,0,6.31,5.37l22.77-1.33a6,6,0,0,0,5.61-6.62c-2.06-20.67-.3-60.85,34.07-100.19A88,88,0,0,1,220.33,100Z"/><path d="M480.8,188.89a6,6,0,0,0-6.31-5.36l-22.77,1.33a6,6,0,0,0-5.61,6.62c2.07,20.67.3,60.85-34.06,100.19a88,88,0,0,1-8.31,8.3C364.4,334.34,324.22,336.1,303.55,334a6,6,0,0,0-6.62,5.61l-1.33,22.77a6,6,0,0,0,5.37,6.31c18.94,1.95,81.58,3.86,132.63-47.2S482.76,207.84,480.8,188.89Z"/><path d="M201.35,184.34C251.59,179,333,260.41,327.66,310.65a4.35,4.35,0,0,0,5,4.81c17.22-2.82,38.36-10.5,59.39-28.87a70,70,0,0,0,6.61-6.62c18.37-21,26.06-42.17,28.87-59.38a4.35,4.35,0,0,0-4.81-5c-50.23,5.31-131.61-76.07-126.3-126.3a4.35,4.35,0,0,0-5-4.81C274.2,87.28,253.06,95,232,113.34a70,70,0,0,0-6.62,6.61c-18.37,21-26,42.17-28.87,59.39A4.35,4.35,0,0,0,201.35,184.34Z"/></svg>