<?xml version="1.0" ?><svg id="icon" viewBox="0 0 512 512" xmlns="http://www.w3.org/2000/svg"><title/><path d="M465.69,32.25,203.23,294.71a10,10,0,0,0,.22,14.38,10.3,10.3,0,0,0,14.24-.51L412.61,113.65a3.4,3.4,0,0,1,5.65,3.4,179.8,179.8,0,0,0-6.9,68.19,137.18,137.18,0,0,1,.23,22.66c-.87,10.84-2.91,26-7.72,39.43a40.77,40.77,0,0,1-28,25.39c-1.76.47-3.64,1-5.62,1.62A4,4,0,0,0,368.6,281l22.7,22.71a4,4,0,0,0,4.35.85,97.22,97.22,0,0,1,30.57-7.42,10.92,10.92,0,0,0,9.46-6.76c6.58-16.13,21.05-60.24,10.72-116.4a378.24,378.24,0,0,1-3.59-57.64A83.28,83.28,0,0,1,467.16,59.1l12.4-12.39a10.3,10.3,0,0,0,.51-14.24A10,10,0,0,0,465.69,32.25Z"/><path d="M46.71,479.56l19.42-19.43a83.28,83.28,0,0,1,57.19-24.35A378.1,378.1,0,0,1,181,439.37c56.16,10.33,100.28-4.14,116.4-10.72a10.92,10.92,0,0,0,6.76-9.46,97.49,97.49,0,0,1,7.42-30.57,4,4,0,0,0-.85-4.35L288,361.56a4,4,0,0,0-6.6,1.62c-.62,2-1.15,3.86-1.63,5.62a40.77,40.77,0,0,1-25.39,28c-13.43,4.81-28.59,6.85-39.43,7.72a137.18,137.18,0,0,1-22.66-.23,179.8,179.8,0,0,0-68.19,6.9,3.39,3.39,0,0,1-3.39-5.65L142,384.27a10.29,10.29,0,0,0,.51-14.24,10,10,0,0,0-14.38-.22L32.25,465.69a10,10,0,0,0,.22,14.38A10.3,10.3,0,0,0,46.71,479.56Z"/><path d="M367.77,319.68c3.52-2.3,3.77-7.46.52-10.71l-22.83-22.83A7.24,7.24,0,0,0,337,284.6,107.52,107.52,0,0,0,291.63,330a7.24,7.24,0,0,0,1.54,8.46L316,361.26c3.25,3.25,8.41,3,10.72-.53a157.67,157.67,0,0,1,18.07-23A157.87,157.87,0,0,1,367.77,319.68Z"/><path d="M163.14,343.33a10,10,0,0,0,1,1.8,10.51,10.51,0,0,0,1.3,1.58A10,10,0,0,0,167,348a9.57,9.57,0,0,0,1.79.95,10.69,10.69,0,0,0,1.95.6,11,11,0,0,0,2,.21,10.7,10.7,0,0,0,2-.21,10.34,10.34,0,0,0,5.33-2.85,9.43,9.43,0,0,0,1.3-1.58,10,10,0,0,0,.95-1.8,10.3,10.3,0,0,0,0-8,10,10,0,0,0-.95-1.8,10.57,10.57,0,0,0-2.88-2.88,10.91,10.91,0,0,0-3.75-1.55,10.69,10.69,0,0,0-2-.2,11,11,0,0,0-2,.2,10.69,10.69,0,0,0-1.95.6,10.35,10.35,0,0,0-3.38,2.25,10.51,10.51,0,0,0-1.3,1.58,10,10,0,0,0-1,1.8,10.3,10.3,0,0,0,0,8Z"/></svg>