<?xml version="1.0" ?><svg id="icon" viewBox="0 0 512 512" xmlns="http://www.w3.org/2000/svg"><title/><path d="M121.13,221.78A27.95,27.95,0,0,0,78,254.37h0c6.11,15.7,21.9,30.47,21.9,30.47L132,316.91a18,18,0,0,1,1.33,24L69.28,421a16.39,16.39,0,0,1-12.65,6.24,27.76,27.76,0,0,0-21.16,9.9,27.94,27.94,0,0,0,41.11,37.77,27.79,27.79,0,0,0,8.16-19.33A16.71,16.71,0,0,1,91,442.7l80.1-64a18,18,0,0,1,24,1.34l32.06,32.06s14.78,15.79,30.48,21.9h0a27.94,27.94,0,1,0-3.56-49.9,6.84,6.84,0,0,1-9.25-2.37l-41.44-67a18.51,18.51,0,0,0-6.05-6.05l-67-41.43a6.84,6.84,0,0,1-2.36-9.25A27.94,27.94,0,0,0,121.13,221.78Z"/><path d="M477.27,29.59,159.37,248.2a7.24,7.24,0,0,0,.11,12c14.39,9.49,41.9,27.17,47.4,30.7L333.1,164.69a10,10,0,1,1,14.19,14.19L221.06,305.1c3.53,5.5,21.22,33,30.71,47.4a7.24,7.24,0,0,0,12,.11L482.39,34.7A3.68,3.68,0,0,0,477.27,29.59Z"/></svg>