<?xml version="1.0" ?><svg height="64" viewBox="0 0 64 64" width="64" xmlns="http://www.w3.org/2000/svg"><title/><g id="PAN"><path d="M50.738,13.762A16.995,16.995,0,0,0,25.373,36.3L21.5,40.17A4.97,4.97,0,0,1,23.024,41.2l.273.273A4.956,4.956,0,0,1,24.331,43l3.87-3.87A16.995,16.995,0,0,0,50.738,13.762Zm-7.155-.076a1,1,0,0,1-1.254.655,12.008,12.008,0,0,0-7.223,0,1,1,0,1,1-.6-1.908,14,14,0,0,1,8.42,0A1,1,0,0,1,43.583,13.686Z"/><path d="M22.591,42.183l-.273-.273a4.012,4.012,0,0,0-5.462-.183l-6.788,5.94a4,4,0,0,0-.2,5.839l1.122,1.122a4.015,4.015,0,0,0,2.83,1.171c.044,0,.089,0,.133,0a4.013,4.013,0,0,0,2.876-1.364l5.94-6.788A4.011,4.011,0,0,0,22.591,42.183ZM13.97,51.939a.913.913,0,0,1-.33.221,1,1,0,0,1-.38.08.961.961,0,0,1-.7-.3.872.872,0,0,1-.22-.319.943.943,0,0,1,0-.761.832.832,0,0,1,.22-.329.99.99,0,0,1,.9-.271,1.233,1.233,0,0,1,.18.05,1.572,1.572,0,0,1,.18.1.711.711,0,0,1,.15.12.929.929,0,0,1,.21.329,1,1,0,0,1,.08.381A.963.963,0,0,1,13.97,51.939Z"/><path d="M47.436,10.039a2.052,2.052,0,0,1,2.6.187l4.243,4.243a2,2,0,0,1,.182,2.606,17.885,17.885,0,0,1,.937,1.932l.3-.295a4.006,4.006,0,0,0,0-5.657L51.445,8.812a4,4,0,0,0-5.656,0L45.5,9.1A17.775,17.775,0,0,1,47.436,10.039Z"/></g></svg>