<?xml version="1.0" ?><svg id="icon" viewBox="0 0 512 512" xmlns="http://www.w3.org/2000/svg"><title/><path d="M349.84,330.71a62.53,62.53,0,0,0,15.07-29.1,614.08,614.08,0,0,0,13.28-146.12,7.57,7.57,0,0,0-8.52-7.24c-54.94,6.93-91.3-13.94-109-28a7.56,7.56,0,0,0-9.45,0c-15.26,12.18-44.45,29.39-87.51,29.39a170.77,170.77,0,0,1-21.47-1.38,7.56,7.56,0,0,0-8.47,7.26,614,614,0,0,0,13.28,146.11,62.57,62.57,0,0,0,15.07,29.1c15.27,16.64,44.83,45.22,82.11,63.59a26.63,26.63,0,0,0,23.46,0C305,375.93,334.57,347.35,349.84,330.71Z"/><path d="M263.91,33.18a10.79,10.79,0,0,0-15.82,0c-50.23,54.31-117.93,44.26-156.57,32a4.05,4.05,0,0,0-4.47,6.28c15.11,20.53,29.52,38.5,38,48.8a19,19,0,0,0,11.31,6.7c73.39,13.09,110.37-29.49,112-31.38A10.11,10.11,0,0,1,256,92h0a10.06,10.06,0,0,1,7.71,3.61c1.57,1.86,38.55,44.43,111.94,31.35a19,19,0,0,0,11.31-6.7c8.44-10.3,22.85-28.27,38-48.8a4.06,4.06,0,0,0-4.48-6.28C381.84,77.44,314.14,87.49,263.91,33.18Z"/><path d="M240.63,414.82c-42.71-19.69-76.31-52-93.28-70.52a82.57,82.57,0,0,1-19.91-38.47c-15.71-73-14.81-133.76-13.41-159.22a19.25,19.25,0,0,0-4.34-13.27c-9.17-11.16-25.35-31.3-42-54.25a4,4,0,0,0-7.31,2.38c.32,73.74,13.86,203.3,19,249.9A58.41,58.41,0,0,0,94,364c39.76,44.32,109,94.14,142.63,117.24a6,6,0,0,0,9.37-4.94V423.16A9.17,9.17,0,0,0,240.63,414.82Z"/><path d="M444.35,79.09c-16.69,23-32.87,43.09-42,54.25A19.25,19.25,0,0,0,398,146.61c1.4,25.46,2.3,86.2-13.41,159.22a82.57,82.57,0,0,1-19.91,38.47c-17,18.5-50.57,50.83-93.28,70.52a9.17,9.17,0,0,0-5.32,8.34v53.11a6,6,0,0,0,9.37,4.94C309,458.11,378.29,408.29,418.05,364a58.41,58.41,0,0,0,14.61-32.6c5.14-46.6,18.69-176.16,19-249.9A4,4,0,0,0,444.35,79.09Z"/></svg>