<?xml version="1.0" ?><svg id="icon" viewBox="0 0 512 512" xmlns="http://www.w3.org/2000/svg"><title/><path d="M37.11,474.89l1.24,1.25a16.5,16.5,0,0,0,23.31,0l.46-.46a16.56,16.56,0,0,0,4.29-7.48,16.47,16.47,0,0,1,4.29-7.48L120,411.39a19.86,19.86,0,0,1,28.08,0l10.5,10.5.15,13.74a9.2,9.2,0,0,0,9.11,9.11l17.31.19a9.21,9.21,0,0,0,9.3-9.31l-.18-17.31a9.21,9.21,0,0,0-9.11-9.11l-14.08-.15L137,375,103,340.9l-.15-14.08a9.21,9.21,0,0,0-9.11-9.11l-17.31-.18a9.21,9.21,0,0,0-9.31,9.3l.19,17.31a9.2,9.2,0,0,0,9.11,9.11l13.74.15,10.5,10.5a19.86,19.86,0,0,1,0,28.08L51.28,441.3a16.47,16.47,0,0,1-7.48,4.29,16.56,16.56,0,0,0-7.48,4.29l-.46.46a16.5,16.5,0,0,0,0,23.31Z"/><path d="M160.2,370.07a2.88,2.88,0,0,0,4.08,0l11.82-11.82A28.33,28.33,0,0,1,197,349.71a31.8,31.8,0,0,1,12.41,3.15,1.37,1.37,0,0,0,1.87-1.74l-.08-.2c-6.5-16.26,7.13-33.55,24.48-31.16l1.16.18a5.26,5.26,0,0,0,4.6-1.5l178.1-178.1a7.94,7.94,0,0,0,2.21-4.17c1.5-8.19,9.57-36.46,50.59-52.13a8.06,8.06,0,0,0,5.19-6.87L481,35.24a3.89,3.89,0,0,0-4.19-4.19l-41.93,3.4A8.06,8.06,0,0,0,428,39.64c-15.67,41-43.94,49.09-52.13,50.59a7.94,7.94,0,0,0-4.17,2.21l-178.1,178.1a5.26,5.26,0,0,0-1.5,4.6c.07.39.13.78.18,1.16,2.39,17.35-14.9,31-31.16,24.48l-.2-.08a1.37,1.37,0,0,0-1.74,1.87A31.8,31.8,0,0,1,162.29,315a28.33,28.33,0,0,1-8.54,20.92l-11.82,11.82a2.88,2.88,0,0,0,0,4.08Z"/></svg>